:version 1.10
:name ASF
:units
  mass 1
  length 1
  angle deg
:documentation
  ASF file generated by Kaydara
:root
  axis xyz
  order  tx ty tz rx ry rz
  position 0 0 0
  orientation 0 0 0
:bonedata
  begin
    id 1
    name RightUpLegDummy
    direction -1 2.30186e-007 8.31532e-007
    length 4.04083
    axis 0 0 0 xyz
  end
  begin
    id 2
    name RightUpLeg
    direction -0.000919234 -0.999985 0.00544864
    length 17.4221
    axis -3.80308 -0.00076134 -0.0523649 xyz
    dof rx ry rz
  end
  begin
    id 3
    name RightLeg
    direction -0.000919271 -0.999984 -0.00555045
    length 17.1239
    axis 4.00314 0.0181274 -0.183583 xyz
    dof rx ry rz
  end
  begin
    id 4
    name RightFoot
    direction -2.57843e-005 -4.04509e-007 1
    length 6.72091
    axis 8.18909e-005 -0.122003 -0.403008 xyz
    dof rx ry rz
  end
  begin
    id 5
    name RightToes
    direction 0.00116825 -0.014069 0.9999
    length 3.85082
    axis 0.000514414 0.540638 -0.356797 xyz
    dof rx ry rz
  end
  begin
    id 6
    name SpineDummy
    direction 0.0168869 0.966876 -0.254689
    length 6.99894
    axis 0 0 0 xyz
  end
  begin
    id 7
    name Spine
    direction -0.0132008 0.999903 0.00446247
    length 11.1999
    axis -0.00148109 0.00725429 0.756411 xyz
    dof rx ry rz
  end
  begin
    id 8
    name Spine1
    direction 0 0 0
    length 0
    axis -0.000934958 0.0245693 1.46543 xyz
    dof rx ry rz
  end
  begin
    id 9
    name HEadDummy
    direction -0.0255732 0.999672 0.00128215
    length 3.43865
    axis -0.000934958 0.0245693 1.46543 xyz
  end
  begin
    id 10
    name HEad
    direction -0.0472656 0.980052 0.19304
    length 5.12695
    axis -0.000934954 0.0245693 1.46543 xyz
    dof rx ry rz
  end
  begin
    id 11
    name LeftShoulder1Dummy
    direction 0.953098 0.301717 -0.023914
    length 3.68488
    axis -0.000934958 0.0245693 1.46543 xyz
  end
  begin
    id 12
    name LeftShoulder1
    direction 0.962466 0.271167 0.0112566
    length 3.13809
    axis -0.000934958 0.0245693 1.46543 xyz
    dof rx ry rz
  end
  begin
    id 13
    name LeftArm
    direction 0.999943 0.00455037 -0.00961766
    length 11.3419
    axis -23.1648 0.685459 1.22814 xyz
    dof rx ry rz
  end
  begin
    id 14
    name LeftForeArm
    direction 0.999332 0.0131969 0.0340885
    length 8.70632
    axis -9.90633 0.618216 0.0826942 xyz
    dof rx ry rz
  end
  begin
    id 15
    name LeftHand
    direction 0.994373 -0.0366703 0.0993905
    length 5.32135
    axis 0.00675269 0.680415 0.445699 xyz
    dof rx ry rz
  end
  begin
    id 16
    name RightShoulderDummy
    direction -0.967298 0.252589 -0.0230903
    length 3.68488
    axis -0.000934958 0.0245693 1.46543 xyz
  end
  begin
    id 17
    name RightShoulder
    direction -0.975062 0.221602 0.0120823
    length 3.13809
    axis 0.216257 0.0246515 1.45863 xyz
    dof rx ry rz
  end
  begin
    id 18
    name RightArm
    direction -0.99886 -0.00851186 -0.0469687
    length 10.3947
    axis -23.196 0.23503 -0.532632 xyz
    dof rx ry rz
  end
  begin
    id 19
    name RightForeArm
    direction -0.99909 0.00114866 0.0426317
    length 8.68355
    axis -9.91764 -0.134943 0.610517 xyz
    dof rx ry rz
  end
  begin
    id 20
    name RightHand
    direction -0.992888 -0.0489538 0.10852
    length 5.28593
    axis -0.00275396 -0.197403 0.246414 xyz
    dof rx ry rz
  end
  begin
    id 21
    name LeftUpLegDummy
    direction 1 -2.30186e-007 -8.31532e-007
    length 4.04083
    axis 0 0 0 xyz
  end
  begin
    id 22
    name LeftUpLeg
    direction -0.000920097 -1 2.79241e-006
    length 17.4221
    axis -3.48782 0.00143434 -0.0532288 xyz
    dof rx ry rz
  end
  begin
    id 23
    name LeftLeg
    direction -0.000920097 -1 2.7912e-006
    length 17.1239
    axis 3.68162 -0.00806512 -0.0529896 xyz
    dof rx ry rz
  end
  begin
    id 24
    name LeftFoot
    direction -2.57845e-005 -3.987e-007 1
    length 6.72091
    axis 3.02372e-005 -0.00147829 -0.214229 xyz
    dof rx ry rz
  end
  begin
    id 25
    name LeftToes
    direction 0.00813577 -0.00488255 0.999955
    length 3.85048
    axis 3.89895e-005 -0.0014783 -0.214229 xyz
    dof rx ry rz
  end
:hierarchy
  begin
    root RightUpLegDummy SpineDummy LeftUpLegDummy
    RightUpLegDummy RightUpLeg
    RightUpLeg RightLeg
    RightLeg RightFoot
    RightFoot RightToes
    SpineDummy Spine
    Spine Spine1
    Spine1 HEadDummy LeftShoulder1Dummy RightShoulderDummy
    HEadDummy HEad
    LeftShoulder1Dummy LeftShoulder1
    LeftShoulder1 LeftArm
    LeftArm LeftForeArm
    LeftForeArm LeftHand
    RightShoulderDummy RightShoulder
    RightShoulder RightArm
    RightArm RightForeArm
    RightForeArm RightHand
    LeftUpLegDummy LeftUpLeg
    LeftUpLeg LeftLeg
    LeftLeg LeftFoot
    LeftFoot LeftToes
  end

:SAMPLES-PER-SECOND 30
:FULLY-SPECIFIED
:DEGREES
112
root  -35.098 34.9359 8.66335 -169.723 83.5162 -175.954
RightUpLeg  -1.175 -12.8801 -2.0601
RightLeg  -0.117608 -0.479639 0.0318492
RightFoot  7.1245 0.0269093 0.0781986
RightToes  -25.1613 -0.103692 -0.20942
Spine  -3.90163 0.641974 -0.0965267
Spine1  -7.38131 1.52994 0.509318
HEad  -69.062 -6.19827 2.07987
LeftShoulder1  -1.94126e-019 -3.10601e-018 -2.51263e-017
LeftArm  -19.0929 13.42 -77.114
LeftForeArm  56.3407 -78.4251 -88.4399
LeftHand  0.183216 9.80964 5.92209
RightShoulder  -4.96962e-017 0 -2.36833e-017
RightArm  -19.9253 -10.2426 72.7809
RightForeArm  113.595 79.6883 107.386
RightHand  0.00974604 -8.30397 -2.07927
LeftUpLeg  0.0545416 3.47162 1.67735
LeftLeg  0.629398 15.8328 -0.833608
LeftFoot  5.53626 -0.0755993 1.74311
LeftToes  -19.8329 1.83942e-006 5.51297e-008
113
root  -35.0421 34.9309 8.61597 -169.434 83.7438 -175.666
RightUpLeg  -1.15029 -12.7347 -2.1384
RightLeg  -0.0426329 -0.396399 0.025817
RightFoot  7.07969 0.0258366 0.0878903
RightToes  -25.3681 -0.103882 -0.209532
Spine  -3.94328 0.662531 -0.0486073
Spine1  -7.46529 1.57149 0.604691
HEad  -69.3728 -5.9784 2.05279
LeftShoulder1  -1.94126e-019 -3.10601e-018 -2.51263e-017
LeftArm  -19.4452 14.6105 -77.1243
LeftForeArm  67.7931 -78.3011 -99.3015
LeftHand  0.187242 9.59054 6.29709
RightShoulder  -4.96962e-017 0 -2.36833e-017
RightArm  -20.2238 -11.1422 73.0719
RightForeArm  118.917 79.3208 112.883
RightHand  0.00614228 -8.33756 -1.92909
LeftUpLeg  0.148871 3.69871 1.62302
LeftLeg  0.709647 15.8169 -0.810877
LeftFoot  5.35115 -0.0697165 1.68849
LeftToes  -19.8955 1.83942e-006 5.51297e-008
114
root  -34.9824 34.9268 8.55848 -169.848 83.7478 -175.998
RightUpLeg  -1.0499 -12.5383 -2.28533
RightLeg  0.147515 -0.592752 0.0366953
RightFoot  6.93423 0.026813 0.0663656
RightToes  -25.406 -0.104085 -0.209671
Spine  -3.95786 0.615952 -0.0119619
Spine1  -7.502 1.47752 0.690741
HEad  -69.9216 -5.76583 2.1878
LeftShoulder1  -1.94126e-019 -3.10601e-018 -2.51263e-017
LeftArm  -19.5846 15.6936 -76.9105
LeftForeArm  76.4319 -77.9768 -106.972
LeftHand  0.199213 9.40013 6.88752
RightShoulder  -4.96962e-017 0 -2.36833e-017
RightArm  -20.6063 -12.083 73.1275
RightForeArm  123.347 78.8932 117.62
RightHand  -0.00405295 -8.26102 -1.5733
LeftUpLeg  0.143952 3.60462 1.51341
LeftLeg  1.1177 15.972 -0.706146
LeftFoot  5.03394 -0.0625536 1.61212
LeftToes  -19.4953 1.83942e-006 5.51297e-008
115
root  -34.9111 34.9209 8.48665 -170.681 83.5814 -176.714
RightUpLeg  -0.919013 -12.4076 -2.49003
RightLeg  0.457227 -0.888494 0.0502559
RightFoot  6.67199 0.028199 0.0369062
RightToes  -25.2986 -0.104299 -0.209835
Spine  -3.94802 0.590115 0.000467534
Spine1  -7.48851 1.42855 0.741512
HEad  -71.218 -5.65782 2.87552
LeftShoulder1  -1.94126e-019 -3.10601e-018 -2.51263e-017
LeftArm  -19.7291 16.384 -76.8048
LeftForeArm  81.4831 -77.744 -110.899
LeftHand  0.207981 9.2353 7.39868
RightShoulder  -4.96962e-017 0 -2.36833e-017
RightArm  -21.4131 -13.1613 72.9796
RightForeArm  127.66 78.3977 122.061
RightHand  -0.0114457 -8.18895 -1.30746
LeftUpLeg  0.0580987 3.21551 1.34293
LeftLeg  1.77546 16.1955 -0.532136
LeftFoot  4.57418 -0.0533978 1.49851
LeftToes  -18.9934 1.83942e-006 5.51297e-008
116
root  -34.8317 34.9143 8.42091 -171.356 83.4551 -177.228
RightUpLeg  -0.784552 -12.0745 -2.66904
RightLeg  0.856985 -1.33019 0.065985
RightFoot  6.3769 0.0302456 -0.00421448
RightToes  -25.2629 -0.104525 -0.210023
Spine  -3.94074 0.646134 -0.0109244
Spine1  -7.47805 1.54574 0.766799
HEad  -72.1369 -5.88541 2.94459
LeftShoulder1  -1.94126e-019 -3.10601e-018 -2.51263e-017
LeftArm  -19.7083 16.7217 -76.7052
LeftForeArm  84.4162 -77.7365 -111.953
LeftHand  0.209467 9.05988 7.75696
RightShoulder  -4.96962e-017 0 -2.36833e-017
RightArm  -22.5874 -14.2986 72.7951
RightForeArm  130.511 77.9902 125.078
RightHand  -0.0124361 -8.21431 -1.2631
LeftUpLeg  -0.0607692 2.78838 1.20011
LeftLeg  2.63468 16.4869 -0.29756
LeftFoot  4.04674 -0.043173 1.36667
LeftToes  -18.6756 1.83942e-006 5.51297e-008
117
root  -34.7443 34.9094 8.35 -172.15 83.2365 -177.771
RightUpLeg  -0.565021 -11.8835 -2.87679
RightLeg  1.33228 -1.72665 0.0713591
RightFoot  6.06207 0.0305122 -0.0358294
RightToes  -25.2826 -0.104763 -0.210235
Spine  -3.93516 0.661357 -0.0483757
Spine1  -7.47187 1.58252 0.785477
HEad  -73.2145 -5.9476 3.51351
LeftShoulder1  -1.94126e-019 -3.10601e-018 -2.51263e-017
LeftArm  -19.731 16.944 -76.5802
LeftForeArm  84.7269 -77.8539 -111.119
LeftHand  0.209594 8.88801 8.09984
RightShoulder  -4.96962e-017 0 -2.36833e-017
RightArm  -23.6055 -15.2441 72.5722
RightForeArm  130.836 77.8897 125.676
RightHand  0.00411652 -8.47491 -1.80069
LeftUpLeg  -0.15454 2.23422 1.04002
LeftLeg  3.62183 16.8373 -0.0178643
LeftFoot  3.52374 -0.0332937 1.23468
LeftToes  -18.2926 1.83942e-006 5.51297e-008
118
root  -34.6515 34.9033 8.28362 -172.914 83.0024 -178.171
RightUpLeg  -0.242327 -11.6566 -3.07962
RightLeg  1.84859 -2.16074 0.069848
RightFoot  5.72682 0.0302974 -0.0660072
RightToes  -25.3612 -0.105014 -0.21047
Spine  -3.91327 0.619144 -0.0782268
Spine1  -7.4318 1.50422 0.817144
HEad  -73.7858 -5.91676 4.09974
LeftShoulder1  -1.94126e-019 -3.10601e-018 -2.51263e-017
LeftArm  -19.9893 17.0976 -76.3601
LeftForeArm  81.8683 -77.9262 -109.493
LeftHand  0.22549 9.12546 8.10593
RightShoulder  -4.96962e-017 0 -2.36833e-017
RightArm  -24.6739 -15.8133 72.6645
RightForeArm  129.306 78.1519 123.914
RightHand  0.0138671 -8.59012 -2.0949
LeftUpLeg  -0.126434 1.68475 0.903034
LeftLeg  4.59935 17.1526 0.269997
LeftFoot  3.03031 -0.0249045 1.1031
LeftToes  -17.7625 1.83942e-006 5.51297e-008
119
root  -34.5485 34.8892 8.22284 -173.165 82.8097 -177.919
RightUpLeg  0.214713 -11.333 -3.21193
RightLeg  2.37883 -2.65307 0.0612195
RightFoot  5.37652 0.0297847 -0.0949236
RightToes  -25.2196 -0.105277 -0.210727
Spine  -3.84662 0.603063 -0.0158889
Spine1  -7.3034 1.47944 0.88728
HEad  -74.0419 -5.92744 4.46915
LeftShoulder1  -1.94126e-019 -3.10601e-018 -2.51263e-017
LeftArm  -20.0335 17.0371 -76.141
LeftForeArm  78.5396 -78.038 -107.216
LeftHand  0.218982 9.17181 7.82826
RightShoulder  -4.96962e-017 0 -2.36833e-017
RightArm  -25.4133 -16.171 72.6127
RightForeArm  126.763 78.4606 121.457
RightHand  0.0265354 -8.9591 -2.3387
LeftUpLeg  -0.219776 1.12251 0.841406
LeftLeg  6.1739 17.5169 0.74968
LeftFoot  2.28475 -0.0145073 0.889086
LeftToes  -17.381 1.83942e-006 5.51297e-008
120
root  -34.4386 34.8734 8.17849 -172.535 82.6966 -176.702
RightUpLeg  0.744582 -10.9685 -3.20231
RightLeg  2.89197 -3.09585 0.0437319
RightFoot  5.09684 0.0290283 -0.117219
RightToes  -25.2328 -0.105552 -0.211005
Spine  -3.75497 0.605806 0.0933028
Spine1  -7.12245 1.50014 1.03094
HEad  -74.5006 -5.82005 4.74253
LeftShoulder1  -1.94126e-019 -3.10601e-018 -2.51263e-017
LeftArm  -19.8278 16.9349 -76.0029
LeftForeArm  77.6064 -78.1094 -106.144
LeftHand  0.220862 9.22859 7.77857
RightShoulder  -4.96962e-017 0 -2.36833e-017
RightArm  -25.5532 -16.506 72.3438
RightForeArm  124.343 78.6473 119.585
RightHand  0.0500409 -9.49863 -2.75215
LeftUpLeg  -0.15039 0.855722 0.952174
LeftLeg  7.61353 17.6682 1.19397
LeftFoot  1.54072 -0.00669308 0.659354
LeftToes  -16.895 1.83942e-006 5.51297e-008
121
root  -34.3706 34.8591 8.13259 -172.287 82.6577 -176.151
RightUpLeg  0.881042 -10.544 -3.22136
RightLeg  3.47437 -3.53284 0.0140395
RightFoot  4.79466 0.0285169 -0.13374
RightToes  -25.2399 -0.105841 -0.211304
Spine  -3.72096 0.642556 0.187781
Spine1  -7.05152 1.58311 1.12999
HEad  -75.295 -5.58661 4.94799
LeftShoulder1  -1.94126e-019 -3.10601e-018 -2.51263e-017
LeftArm  -19.5694 16.8253 -76.0016
LeftForeArm  78.082 -78.1288 -106.147
LeftHand  0.206995 9.08439 7.6377
RightShoulder  -4.96962e-017 0 -2.36833e-017
RightArm  -25.8324 -16.8247 72.2584
RightForeArm  124.372 78.6736 119.438
RightHand  0.0423734 -9.57744 -2.51019
LeftUpLeg  -0.382269 0.540618 0.934699
LeftLeg  8.97904 17.9257 1.6334
LeftFoot  0.921937 -0.00245794 0.467103
LeftToes  -16.5173 1.83942e-006 5.51297e-008
122
root  -34.2959 34.8449 8.10295 -171.706 82.7028 -175.33
RightUpLeg  1.0119 -10.2678 -3.19157
RightLeg  3.90861 -3.74385 -0.0134434
RightFoot  4.59655 0.0275844 -0.136409
RightToes  -25.3625 -0.106142 -0.211621
Spine  -3.72797 0.659039 0.277551
Spine1  -7.06112 1.62615 1.24176
HEad  -76.0345 -5.42225 4.89668
LeftShoulder1  -1.94126e-019 -3.10601e-018 -2.51263e-017
LeftArm  -19.4372 16.9222 -76.0997
LeftForeArm  79.2378 -78.0964 -106.936
LeftHand  0.197173 8.9165 7.65582
RightShoulder  -4.96962e-017 0 -2.36833e-017
RightArm  -25.8769 -17.2109 72.2758
RightForeArm  125.075 78.6531 119.8
RightHand  0.0269966 -9.28446 -2.21207
LeftUpLeg  -0.533476 0.468582 0.989575
LeftLeg  10.0698 18.0271 1.98294
LeftFoot  0.422101 -0.000532381 0.306172
LeftToes  -16.2214 1.83942e-006 5.51297e-008
123
root  -34.2225 34.835 8.08488 -171.223 82.7817 -174.727
RightUpLeg  1.09988 -10.0563 -3.15864
RightLeg  4.18507 -3.88215 -0.0326408
RightFoot  4.42511 0.0264543 -0.134049
RightToes  -25.2496 -0.106456 -0.211958
Spine  -3.8065 0.646108 0.327472
Spine1  -7.21873 1.60559 1.32963
HEad  -77.0072 -4.96911 4.99477
LeftShoulder1  -1.94126e-019 -3.10601e-018 -2.51263e-017
LeftArm  -19.364 17.3076 -76.2191
LeftForeArm  80.6456 -78.0702 -107.744
LeftHand  0.185866 8.77456 7.57538
RightShoulder  -4.96962e-017 0 -2.36833e-017
RightArm  -25.7029 -17.7625 72.4019
RightForeArm  125.988 78.5883 120.491
RightHand  0.0210267 -9.17688 -2.08183
LeftUpLeg  -0.597642 0.569131 1.0531
LeftLeg  10.7284 17.9757 2.1832
LeftFoot  0.0970257 -3.21855e-005 0.199906
LeftToes  -16.1676 1.83942e-006 5.51297e-008
124
root  -34.1449 34.8287 8.07927 -170.778 82.9231 -174.269
RightUpLeg  1.13683 -9.83025 -3.1151
RightLeg  4.33846 -3.96446 -0.0439305
RightFoot  4.27852 0.0253555 -0.130066
RightToes  -25.1338 -0.106783 -0.212312
Spine  -3.90751 0.593179 0.347445
Spine1  -7.42672 1.49965 1.37573
HEad  -78.4621 -4.29528 5.08873
LeftShoulder1  -1.94126e-019 -3.10601e-018 -2.51263e-017
LeftArm  -19.3227 18.0011 -76.2339
LeftForeArm  82.1934 -78.0622 -108.419
LeftHand  0.172785 8.60275 7.48923
RightShoulder  -4.96962e-017 0 -2.36833e-017
RightArm  -25.4481 -18.4593 72.7228
RightForeArm  127.341 78.5075 121.398
RightHand  0.0164353 -9.02693 -2.00098
LeftUpLeg  -0.524662 0.808639 1.11897
LeftLeg  10.8953 17.8726 2.22302
LeftFoot  -0.0475635 -3.35651e-006 0.152816
LeftToes  -16.1488 1.83942e-006 5.51297e-008
125
root  -34.057 34.8252 8.07552 -170.627 83.0354 -174.166
RightUpLeg  1.2977 -9.7738 -3.1195
RightLeg  4.17046 -3.91864 -0.0319562
RightFoot  4.26364 0.0244038 -0.126254
RightToes  -25.199 -0.107124 -0.212683
Spine  -4.06499 0.532096 0.354386
Spine1  -7.75502 1.36724 1.4033
HEad  -80.0639 -3.77157 5.26866
LeftShoulder1  -1.94126e-019 -3.10601e-018 -2.51263e-017
LeftArm  -19.1634 19.1027 -76.2686
LeftForeArm  82.3434 -78.1244 -107.917
LeftHand  0.154588 8.33459 7.4172
RightShoulder  -4.96962e-017 0 -2.36833e-017
RightArm  -25.283 -19.4666 73.0963
RightForeArm  128.648 78.4268 122.264
RightHand  0.00832948 -8.91763 -1.78896
LeftUpLeg  -0.278533 0.877691 1.12659
LeftLeg  10.616 17.9213 2.14176
LeftFoot  -0.0529848 -0.000969445 0.150449
LeftToes  -16.1144 1.83942e-006 5.51297e-008
126
root  -33.9562 34.823 8.07594 -170.63 83.1641 -174.26
RightUpLeg  1.42411 -9.74625 -3.14658
RightLeg  4.02783 -3.82213 -0.0216667
RightFoot  4.16538 0.0229586 -0.113599
RightToes  -25.0029 -0.107477 -0.213071
Spine  -4.22867 0.436048 0.346182
Spine1  -8.09883 1.16012 1.4091
HEad  -82.1542 -3.21157 5.32834
LeftShoulder1  -1.94126e-019 -3.10601e-018 -2.51263e-017
LeftArm  -19.2241 20.5535 -76.4
LeftForeArm  81.7838 -78.2274 -106.721
LeftHand  0.143228 8.28825 7.09491
RightShoulder  -4.96962e-017 0 -2.36833e-017
RightArm  -24.9703 -20.5501 73.4348
RightForeArm  129.195 78.3885 122.642
RightHand  0.00320595 -8.88554 -1.63768
LeftUpLeg  0.0862034 0.929918 1.10587
LeftLeg  10.0428 18.0386 1.97571
LeftFoot  0.0258141 -0.00277666 0.1753
LeftToes  -16.1229 1.83942e-006 5.51297e-008
